<svg xmlns="http://www.w3.org/2000/svg" width="1066.62" height="143.5" viewBox="0 -14.35 1066.62 143.5"><defs><clipPath id="lockup-full-far"><rect x="0" y="0" width="256" height="122.0"/></clipPath><clipPath id="lockup-full-near"><rect x="0" y="122.0" width="256" height="256"/></clipPath></defs><g transform="translate(0,-14.35) scale(0.56055)"><g transform="rotate(-22 128 128)"><path fill-rule="evenodd" fill="#5A2208" clip-path="url(#lockup-full-far)" d="M10,128A118,60 0 1 1 246,128A118,60 0 1 1 10,128ZM40,116A88,30 0 1 0 216,116A88,30 0 1 0 40,116Z"/><path fill-rule="evenodd" fill="#C2510E" clip-path="url(#lockup-full-near)" d="M10,128A118,60 0 1 1 246,128A118,60 0 1 1 10,128ZM40,116A88,30 0 1 0 216,116A88,30 0 1 0 40,116Z"/></g></g><path fill="#5C5C64" d="M165.46 23.8V0H170.1V9.33H179.98V0H184.62V23.8H179.98V13.75H170.1V23.8ZM198.45 23.8 207.62 0H212.04L221.23 23.8H216.22L214.37 18.89H205.32L203.5 23.8ZM206.84 14.64H212.8L210.52 8.65Q210.42 8.38 210.29 8.04Q210.15 7.7 210.03 7.35Q209.91 7 209.83 6.71Q209.74 7 209.62 7.35Q209.5 7.7 209.37 8.04Q209.23 8.38 209.13 8.65ZM235.07 23.8V0H239.71V19.29H251.21V23.8ZM274.1 24.21Q271.25 24.21 269.25 23.13Q267.25 22.05 266.02 20.26Q264.79 18.46 264.23 16.29Q263.67 14.11 263.67 11.9Q263.67 9.69 264.23 7.51Q264.79 5.34 266.02 3.54Q267.25 1.75 269.25 0.67Q271.25 -0.41 274.1 -0.41Q276.96 -0.41 278.95 0.67Q280.94 1.75 282.16 3.54Q283.39 5.34 283.95 7.51Q284.51 9.69 284.51 11.9Q284.51 14.11 283.95 16.29Q283.39 18.46 282.16 20.26Q280.94 22.05 278.95 23.13Q276.96 24.21 274.1 24.21ZM274.1 19.74Q275.63 19.74 276.71 19.01Q277.78 18.27 278.44 17.1Q279.1 15.93 279.39 14.56Q279.68 13.19 279.68 11.9Q279.68 10.52 279.4 9.13Q279.12 7.73 278.47 6.59Q277.83 5.44 276.75 4.73Q275.67 4.03 274.1 4.03Q272.51 4.03 271.44 4.76Q270.36 5.49 269.71 6.67Q269.06 7.85 268.77 9.23Q268.49 10.61 268.49 11.9Q268.49 13.26 268.78 14.64Q269.07 16.01 269.73 17.18Q270.38 18.34 271.46 19.04Q272.54 19.74 274.1 19.74ZM327.16 24.16Q324.37 24.16 322.46 23.09Q320.55 22.03 319.38 20.26Q318.22 18.48 317.69 16.3Q317.17 14.13 317.17 11.9Q317.17 9.81 317.7 7.64Q318.24 5.47 319.42 3.65Q320.6 1.82 322.51 0.71Q324.42 -0.41 327.16 -0.41Q329.44 -0.41 331.12 0.37Q332.81 1.16 333.94 2.39Q335.07 3.62 335.64 4.96L331.48 6.88Q330.9 6 330.3 5.36Q329.69 4.73 328.95 4.38Q328.2 4.03 327.16 4.03Q325.7 4.03 324.7 4.75Q323.71 5.47 323.12 6.65Q322.52 7.82 322.26 9.2Q321.99 10.57 321.99 11.9Q321.99 13.29 322.28 14.67Q322.57 16.05 323.21 17.19Q323.85 18.33 324.82 19.01Q325.8 19.7 327.16 19.7Q328.62 19.7 329.64 18.85Q330.66 18 331.48 16.66L335.73 18.24Q334.93 19.96 333.76 21.29Q332.58 22.63 330.96 23.39Q329.34 24.16 327.16 24.16ZM349.92 23.8V0H366.33V4.4H354.57V9.32H361.4V13.72H354.57V19.36H367.03V23.8ZM382.92 12.9Q381.7 12.9 380.87 12.1Q380.05 11.3 380.05 10.1Q380.05 8.92 380.87 8.08Q381.7 7.24 382.92 7.24Q384.15 7.24 384.99 8.08Q385.83 8.92 385.83 10.1Q385.83 11.3 384.99 12.1Q384.15 12.9 382.92 12.9ZM382.92 24.22Q381.7 24.22 380.87 23.42Q380.05 22.61 380.05 21.4Q380.05 20.23 380.87 19.4Q381.7 18.56 382.92 18.56Q384.15 18.56 384.99 19.4Q385.83 20.23 385.83 21.4Q385.83 22.61 384.99 23.42Q384.15 24.22 382.92 24.22Z"/><path fill="#0A0A0B" d="M162.32 114.8 190.22 44.8H205.32L233.32 114.8H216.02L210.82 101.5H184.72L179.62 114.8ZM190.02 86.9H205.42L199.72 72.9Q199.42 72.2 199.05 71.32Q198.67 70.45 198.32 69.52Q197.97 68.6 197.72 67.8Q197.47 68.6 197.12 69.52Q196.77 70.45 196.4 71.32Q196.02 72.2 195.72 72.9ZM246.72 114.8V44.8H281.42Q290.37 44.8 295.62 47.92Q300.87 51.05 303.14 56.25Q305.42 61.45 305.42 67.6Q305.42 71.45 303.97 75.52Q302.52 79.6 299.75 82.97Q296.97 86.35 293.02 88.1L306.02 114.8H288.32L275.82 90.6H262.52V114.8ZM262.52 75.7H281.62Q284.42 75.7 286.05 74.57Q287.67 73.45 288.35 71.6Q289.02 69.75 289.02 67.6Q289.02 65.6 288.37 63.8Q287.72 62 286.1 60.85Q284.47 59.7 281.62 59.7H262.52ZM321.82 114.8V44.8H372.92V59.8H337.62V71.2H357.02V86.2H337.62V99.7H374.92V114.8ZM390.42 114.8V44.8H404.72L430.02 80.3Q430.47 80.95 431.47 82.65Q432.47 84.35 432.92 85.5Q432.77 84.5 432.7 82.72Q432.62 80.95 432.62 80.2V44.8H448.32V114.8H434.62L408.72 79Q408.22 78.3 407.25 76.55Q406.27 74.8 405.72 73.6Q405.97 74.95 406 76.47Q406.02 78 406.02 79V114.8ZM461.72 114.8 489.62 44.8H504.72L532.72 114.8H515.42L510.22 101.5H484.12L479.02 114.8ZM489.42 86.9H504.82L499.12 72.9Q498.82 72.2 498.45 71.32Q498.07 70.45 497.72 69.52Q497.37 68.6 497.12 67.8Q496.87 68.6 496.52 69.52Q496.17 70.45 495.8 71.32Q495.42 72.2 495.12 72.9ZM576.62 114.8V44.8H627.72V59.8H592.42V71.2H611.82V86.2H592.42V99.7H629.72V114.8ZM665.62 114.8 640.22 44.8H657.32L672.32 88.3Q672.62 89.1 672.85 89.75Q673.07 90.4 673.12 90.7Q673.12 90.55 673.32 89.88Q673.52 89.2 673.82 88.3L688.92 44.8H705.82L680.52 114.8ZM748.52 116Q740.07 116 734.12 112.82Q728.17 109.65 724.5 104.38Q720.82 99.1 719.12 92.7Q717.42 86.3 717.42 79.8Q717.42 73.3 719.12 66.9Q720.82 60.5 724.5 55.22Q728.17 49.95 734.12 46.77Q740.07 43.6 748.52 43.6Q757.02 43.6 762.92 46.77Q768.82 49.95 772.5 55.22Q776.17 60.5 777.85 66.9Q779.52 73.3 779.52 79.8Q779.52 86.3 777.85 92.7Q776.17 99.1 772.5 104.38Q768.82 109.65 762.92 112.82Q757.02 116 748.52 116ZM748.52 100.7Q752.52 100.7 755.32 98.75Q758.12 96.8 759.85 93.65Q761.57 90.5 762.35 86.85Q763.12 83.2 763.12 79.8Q763.12 76.2 762.4 72.5Q761.67 68.8 760 65.7Q758.32 62.6 755.5 60.7Q752.67 58.8 748.52 58.8Q744.32 58.8 741.5 60.77Q738.67 62.75 736.97 65.9Q735.27 69.05 734.55 72.72Q733.82 76.4 733.82 79.8Q733.82 83.3 734.57 86.97Q735.32 90.65 737.05 93.77Q738.77 96.9 741.6 98.8Q744.42 100.7 748.52 100.7ZM796.12 114.8V44.8H811.92V99.5H845.42V114.8ZM878.12 114.8 852.72 44.8H869.82L884.82 88.3Q885.12 89.1 885.35 89.75Q885.57 90.4 885.62 90.7Q885.62 90.55 885.82 89.88Q886.02 89.2 886.32 88.3L901.42 44.8H918.32L893.02 114.8ZM932.42 114.8V44.8H983.52V59.8H948.22V71.2H967.62V86.2H948.22V99.7H985.52V114.8ZM1001.02 114.8V44.8H1027.62Q1036.82 44.8 1043.32 47.75Q1049.82 50.7 1053.92 55.72Q1058.02 60.75 1059.92 67Q1061.82 73.25 1061.82 79.8Q1061.82 85.75 1060 91.9Q1058.17 98.05 1054.15 103.25Q1050.12 108.45 1043.5 111.62Q1036.87 114.8 1027.22 114.8ZM1016.82 99.7H1028.72Q1033.27 99.7 1036.45 97.92Q1039.62 96.15 1041.6 93.2Q1043.57 90.25 1044.5 86.75Q1045.42 83.25 1045.42 79.8Q1045.42 76.2 1044.5 72.65Q1043.57 69.1 1041.67 66.2Q1039.77 63.3 1036.82 61.55Q1033.87 59.8 1029.82 59.8H1016.82Z"/></svg>
